<svg id="Layer_1" viewBox="0 0 64 64" xmlns="http://www.w3.org/2000/svg"><circle cx="21" cy="40.99" fill="#b0e2bc" r="8"/><ellipse cx="10" cy="22" fill="#82bc8e" rx="7" ry="19"/><circle cx="32" cy="50" fill="#bfefca" r="5"/><path d="m16 41.99c0-4.42 3.58-8 8-8 .33 0 .66.03.98.07-1.17-.67-2.53-1.07-3.98-1.07-4.42 0-8 3.58-8 8 0 4.09 3.07 7.45 7.02 7.94-2.4-1.38-4.02-3.97-4.02-6.94z" fill="#91c49a"/><path d="m16.22 30.68c.49-2.6.78-5.55.78-8.68 0-10.49-3.13-19-7-19s-7 8.51-7 19c0 9.58 2.61 17.48 6.01 18.79.09-4.65 3.06-8.59 7.21-10.11z" fill="#98d8a9"/><ellipse cx="54" cy="22" fill="#82bc8e" rx="7" ry="19"/><path d="m47.78 30.68c-.49-2.6-.78-5.55-.78-8.68 0-10.49 3.13-19 7-19s7 8.51 7 19c0 9.58-2.61 17.48-6.01 18.79-.09-4.65-3.06-8.59-7.21-10.11z" fill="#98d8a9"/><rect fill="#9fcea6" height="2" rx="1" width="2" x="22" y="11.98"/><rect fill="#c5edcd" height="2" rx="1" width="2" x="22" y="22.99"/><rect fill="#91c49a" height="2" rx="1" width="2" x="43" y="3.98"/><rect fill="#9fcea6" height="2" rx="1" width="2" x="40" y="10.98"/><rect fill="#c5edcd" height="2" rx="1" width="2" x="33" y="26.99"/><rect fill="#91c49a" height="2" rx="1" width="2" x="41" y="23.99"/><rect fill="#c5edcd" height="2" rx="1" width="2" x="18" y="5.98"/><circle cx="43" cy="40.99" fill="#b0e2bc" r="8"/><path d="m48 41.99c0-4.42-3.58-8-8-8-.33 0-.66.03-.98.07 1.17-.67 2.53-1.07 3.98-1.07 4.42 0 8 3.58 8 8 0 4.09-3.07 7.45-7.02 7.94 2.4-1.38 4.02-3.97 4.02-6.94z" fill="#91c49a"/><path d="m57.89 23.47-1.78-.9-2.11 4.21-2.11-4.21-1.78.9 2.89 5.78v31.75h2v-31.75z" fill="#d1a586"/><path d="m13.89 23.47-1.78-.9-2.11 4.21-2.11-4.21-1.78.9 2.89 5.78v30.75h2v-30.75z" fill="#d1a586"/><path d="m20 42h2v18h-2z" fill="#ddb192"/><path d="m31 50h2v10h-2z" fill="#d1a586"/><path d="m42 42h2v18h-2z" fill="#ddb192"/><g fill="#c18e6b"><path d="m3 59h48v2h-48z"/><path d="m57 59h4v2h-4z"/></g></svg>